# xmcd
#
# Track frame offsets: 
#        183
#        12290
#        27155
#        37595
#        50610
#        60873
#        73605
#        85700
#        94520
#        111128
#        119518
#        129938
#        141055
#        153678
#        166298
#        177600
#        198048
#        209335
#        219670
#        231965
#        245505
#        255180
#        268360
#        278485
#        288958
#
# Disc length: 4135 seconds
#
# Revision: 3
# Processed by: cddbd v1.5.2PL0 Copyright (c) Steve Scherf et al.
# Submitted via: ExactAudioCopy v1.0b6
#
DISCID=59102519
DTITLE=The Golden Gate Quartet - Spirituals To Swing 1955-1969
DYEAR=1900
DGENRE=Gospel
TTITLE0=Shadrack - 1955
TTITLE1=Swing Low, Sweet Chariot - 1955
TTITLE2=Joshua Fit The Battle Of Jericho - 1955
TTITLE3=Nobody Knows The Trouble I've Seen - 1957
TTITLE4=Elijah - 1958
TTITLE5=Down By The Riverside - 1958
TTITLE6='Round The Bay Of Mexico - 1958
TTITLE7=Casey Jones - 1960
TTITLE8=White Christmas - 1960
TTITLE9=Ballin' The Jack - 1960
TTITLE10=Alexander's Ragtime Band - 1960
TTITLE11=Memories Of You - 1960
TTITLE12=When The Saint's Go Marchin' In - 1960
TTITLE13=Margie - 1960
TTITLE14=Saint-Louis Blues - 1960
TTITLE15=Deep Rriver - 1960
TTITLE16=Rock My Soul - 1964
TTITLE17=Same Train - 1964
TTITLE18=Over There - 1964
TTITLE19=Glory Hallelujah - 1964
TTITLE20=Basin Street Blues - 1965
TTITLE21=The Birth Of The Blues - 1965
TTITLE22=On The Sunny Side Of The Street - 1965
TTITLE23=Sweet Georgia Brown - 1965
TTITLE24=Oh Happy Day - 1969
EXTD=Orlandus Wilson (bass,ldr]\nClyde Riddick, Clyde Wright (tenors]\n
EXTD=Julius Caleb Ginyard (baritone]\n\n1988 Reedition EMI - France
EXTT0=
EXTT1=
EXTT2=
EXTT3=
EXTT4=
EXTT5=
EXTT6=
EXTT7=
EXTT8=
EXTT9=
EXTT10=
EXTT11=
EXTT12=
EXTT13=
EXTT14=
EXTT15=
EXTT16=
EXTT17=
EXTT18=
EXTT19=
EXTT20=
EXTT21=
EXTT22=
EXTT23=
EXTT24=
PLAYORDER=
